<?xml version="1.0" encoding="utf-8"?>
<!-- Generator: Adobe Illustrator 22.0.0, SVG Export Plug-In . SVG Version: 6.00 Build 0)  -->
<svg version="1.1" id="Layer_1" xmlns="http://www.w3.org/2000/svg" xmlns:xlink="http://www.w3.org/1999/xlink" x="0px" y="0px"
	 viewBox="0 0 500 500" style="enable-background:new 0 0 500 500;" xml:space="preserve">
<style type="text/css">
	.st0{fill:#FFFFFF;}
	.st1{fill:#1A1A1A;}
</style>
<circle class="st0" cx="419" cy="159" r="48"/>
<path class="st0" d="M370.5,136.5c0,0-13.5,18.5-2.5,43.5l-30-2l14,40c0,0,28-26,62,10l26,1l-6-16c0,0,29-14,34-37c0,0,37,64,21,88
	c0,0,4,19-77,10l-112,92c0,0-9,19-58,17s-217,1-217,1s-20-8-20-32s25-28,25-28l31.5,0.5c0,0-4-4,16-19s86-66,86-66s16-20,40.5-3.5
	s63.5,51.5,63.5,51.5l46-36c0,0-31-63-24-100c0,0,7-23,30-20S370.5,136.5,370.5,136.5z"/>
<polygon class="st1" points="150.5,326.5 185.5,297.5 221.5,325.5 "/>
</svg>
