<?xml version="1.0" encoding="utf-8"?>
<!-- Generator: Adobe Illustrator 22.0.0, SVG Export Plug-In . SVG Version: 6.00 Build 0)  -->
<svg version="1.1" id="Layer_1" xmlns="http://www.w3.org/2000/svg" xmlns:xlink="http://www.w3.org/1999/xlink" x="0px" y="0px"
	 viewBox="0 0 500 500" style="enable-background:new 0 0 500 500;" xml:space="preserve">
<style type="text/css">
	.st0{fill:#FFFFFF;}
	.st1{fill:#1190D0;}
</style>
<g>
	<path class="st0" d="M441.7,4H154.5c-16.4,0-29.8,13.4-29.8,29.8v66.7c-54.5,15.6-94.5,65.9-94.5,125.3s40,109.7,94.5,125.3v114.8
		c0,16.4,13.4,29.8,29.8,29.8h234.7c2.8,0,5.5-1.1,7.4-3.1l71.8-71.8c2-2,3.1-4.6,3.1-7.4V33.8C471.5,17.4,458.2,4,441.7,4z
		 M154.5,25h287.2c4.9,0,8.8,4,8.8,8.8v31.7H145.7V33.8C145.7,29,149.6,25,154.5,25z M51.2,225.8c0-60.3,49-109.3,109.3-109.3
		s109.3,49,109.3,109.3s-49,109.3-109.3,109.3S51.2,286.1,51.2,225.8z M145.7,465.9V355.3c0,0,0,0,0,0c4.9,0.6,9.8,0.8,14.8,0.8
		c39.1,0,74.3-17.3,98.2-44.8c0,0,0,0,0,0l15-21c0,0,0,0,0,0c9.1-15.9,15-34,16.6-53.2c0,0,0,0,0,0l0.1-21c0,0,0,0,0,0
		c-1.4-19.2-7-37.2-15.9-53.2c0,0,0,0,0,0l-7.7-11.1c-15-21.8-36.2-38.8-61-48.1c-14.1-5.3-29.4-8.2-45.4-8.2c-5,0-9.9,0.3-14.8,0.8
		c0,0,0,0,0,0v-9.9c0,0,0,0,0,0h304.9c0,0,0,0,0,0v316.4c0,0,0,0,0,0h-42c-16.5,0-29.8,13.3-29.8,29.8v42c0,0,0,0,0,0H154.5
		C149.6,474.7,145.7,470.7,145.7,465.9z M399.7,459.8v-27.2c0-4.9,4-8.8,8.8-8.8h27.2L399.7,459.8z"/>
	<path class="st1" d="M325.5,171.8h64.7c10.8,0,19.5-8.7,19.5-19.5s-8.7-19.5-19.5-19.5h-64.7c-10.8,0-19.5,8.7-19.5,19.5
		S314.7,171.8,325.5,171.8z"/>
	<path class="st1" d="M329.5,242.8h64.7c10.8,0,19.5-8.7,19.5-19.5s-8.7-19.5-19.5-19.5h-64.7c-10.8,0-19.5,8.7-19.5,19.5
		S318.7,242.8,329.5,242.8z"/>
	<path class="st1" d="M326.5,319.8h64.7c10.8,0,19.5-8.7,19.5-19.5c0-10.8-8.7-19.5-19.5-19.5h-64.7c-10.8,0-19.5,8.7-19.5,19.5
		C307,311.1,315.7,319.8,326.5,319.8z"/>
	<path class="st1" d="M412.6,378.4c0,10.8-8.7,19.5-19.5,19.5H215.5c-10.8,0-19.5-8.7-19.5-19.5c0-10.8,8.7-19.5,19.5-19.5h177.7
		C403.9,358.9,412.6,367.6,412.6,378.4z"/>
	<path class="st1" d="M242,172.8L229.2,160c-3.4-3.4-8-5.3-12.9-5.3s-9.5,1.9-12.9,5.3l-67.2,67.2l-18.6-18.6
		c-3.4-3.4-8-5.3-12.9-5.3s-9.5,1.9-12.9,5.3l-12.8,12.8c-7.1,7.1-7.1,18.7,0,25.8l44.3,44.3c3.4,3.5,8,5.4,12.9,5.4h0
		c4.9,0,9.5-1.9,12.9-5.3l92.9-92.9C249.1,191.6,249.1,180,242,172.8z M136.2,274.8l-40.4-40.4l8.9-8.9l24.1,24.1
		c4.1,4.1,10.7,4.1,14.9,0l72.7-72.7l8.9,8.9L136.2,274.8z"/>
</g>
</svg>
