<?xml version="1.0" encoding="utf-8"?>
<!-- Generator: Adobe Illustrator 22.0.0, SVG Export Plug-In . SVG Version: 6.00 Build 0)  -->
<svg version="1.1" id="Layer_1" xmlns="http://www.w3.org/2000/svg" xmlns:xlink="http://www.w3.org/1999/xlink" x="0px" y="0px"
	 viewBox="0 0 500 500" style="enable-background:new 0 0 500 500;" xml:space="preserve">
<style type="text/css">
	.st0{fill:none;stroke:#24242B;stroke-width:3.8911;stroke-miterlimit:10;}
	.st1{fill:none;stroke:#FFFFFF;stroke-width:10;stroke-miterlimit:10;}
	.st2{fill:none;stroke:#1190D0;stroke-width:10;stroke-miterlimit:10;}
</style>
<g>
	<g>
		<path class="st0" d="M349.6,419.6"/>
	</g>
	<path class="st1" d="M364.3,238.3c0-54.5-45.2-98.5-100.2-96.4c-49.5,1.9-90.1,41.9-92.6,91.4c-1.2,23.7,6.1,45.6,19.2,62.9
		c19.6,26,30.9,48,30.9,80.5v3.7h92.4v-1.3c0-32.9,10.1-56,30.2-82C356.8,280.9,364.3,260.5,364.3,238.3z"/>
	<line class="st2" x1="222.3" y1="398.9" x2="313.4" y2="398.9"/>
	<line class="st2" x1="239.6" y1="420" x2="296.1" y2="420"/>
	<line class="st2" x1="105.1" y1="214.3" x2="149.5" y2="214.3"/>
	<line class="st2" x1="385.2" y1="214.3" x2="429.5" y2="214.3"/>
	<line class="st2" x1="363.5" y1="126.9" x2="344.5" y2="146"/>
	<line class="st2" x1="176.9" y1="126.9" x2="196" y2="146"/>
	<line class="st2" x1="262.3" y1="119.9" x2="262.3" y2="77.6"/>
	<polyline class="st2" points="251.2,355.9 251.2,302.8 218.1,258.3 	"/>
	<polyline class="st2" points="285,355.9 285,302.8 318.1,258.3 	"/>
</g>
</svg>
